<svg xmlns="http://www.w3.org/2000/svg" viewBox="0 0 110.88 22.35"><defs><style>.cls-1{fill:#fff;}</style></defs><title>logo</title><g id="Layer_2" data-name="Layer 2"><g id="Layer_112" data-name="Layer 112"><path class="cls-1" d="M0,1.06A24.2,24.2,0,0,1,4,.74,6.65,6.65,0,0,1,8.54,2.09,4.35,4.35,0,0,1,10,5.47,4.76,4.76,0,0,1,8.71,8.93a6.7,6.7,0,0,1-4.94,1.78,7.2,7.2,0,0,1-1.68-.14V17H0Zm2.09,7.8A7,7,0,0,0,3.82,9C6.34,9,7.87,7.8,7.87,5.57S6.36,2.4,4.06,2.4a8.75,8.75,0,0,0-2,.17Z"/><path class="cls-1" d="M12.58,0h2.11V17H12.58Z"/><path class="cls-1" d="M24.67,17l-.17-1.46h-.07a4.33,4.33,0,0,1-3.55,1.73A3.31,3.31,0,0,1,17.33,14c0-2.81,2.5-4.34,7-4.32V9.41a2.39,2.39,0,0,0-2.64-2.69,5.79,5.79,0,0,0-3,.86l-.48-1.39a7.21,7.21,0,0,1,3.82-1c3.55,0,4.42,2.42,4.42,4.75v4.34A16.35,16.35,0,0,0,26.59,17Zm-.31-5.93c-2.3,0-4.92.36-4.92,2.62a1.87,1.87,0,0,0,2,2,2.89,2.89,0,0,0,2.81-1.94,2.2,2.2,0,0,0,.12-.67Z"/><path class="cls-1" d="M30.38,5.42l2.54,6.86c.26.77.55,1.68.74,2.38h0c.22-.7.46-1.58.74-2.42l2.3-6.82H39l-3.17,8.28c-1.51,4-2.54,6-4,7.27a5.72,5.72,0,0,1-2.59,1.37l-.53-1.78a5.59,5.59,0,0,0,1.85-1,6.4,6.4,0,0,0,1.78-2.35,1.51,1.51,0,0,0,.17-.5,1.84,1.84,0,0,0-.14-.55l-4.3-10.7Z"/><path class="cls-1" d="M53.3,16.32a15.07,15.07,0,0,1-5,.89,8.32,8.32,0,0,1-6-2.14A8.32,8.32,0,0,1,40,9C40.06,4.22,43.37.7,48.79.7a10,10,0,0,1,4,.74l-.5,1.7a8.39,8.39,0,0,0-3.58-.7c-3.94,0-6.5,2.45-6.5,6.5s2.47,6.53,6.24,6.53A6.81,6.81,0,0,0,51.26,15V10.22H48V8.54H53.3Z"/><path class="cls-1" d="M56.42,9c0-1.37,0-2.54-.1-3.62h1.85l.07,2.28h.1a3.49,3.49,0,0,1,3.22-2.54,2.29,2.29,0,0,1,.6.07v2a3.18,3.18,0,0,0-.72-.07,3,3,0,0,0-2.83,2.71,5.91,5.91,0,0,0-.1,1V17H56.42Z"/><path class="cls-1" d="M74.54,11.14c0,4.3-3,6.17-5.78,6.17-3.14,0-5.57-2.3-5.57-6,0-3.89,2.54-6.17,5.76-6.17S74.54,7.58,74.54,11.14Zm-9.22.12c0,2.54,1.46,4.46,3.53,4.46s3.53-1.9,3.53-4.51c0-2-1-4.46-3.48-4.46S65.33,9,65.33,11.26Z"/><path class="cls-1" d="M86.93,13.87c0,1.2,0,2.26.1,3.17H85.15L85,15.15h0a4.37,4.37,0,0,1-3.84,2.16c-1.82,0-4-1-4-5.09V5.42h2.11v6.43c0,2.21.67,3.7,2.59,3.7a3.05,3.05,0,0,0,2.78-1.92,3.1,3.1,0,0,0,.19-1.08V5.42h2.11Z"/><path class="cls-1" d="M90.43,9.22c0-1.49,0-2.69-.1-3.79h1.9l.1,2h0A4.57,4.57,0,0,1,96.5,5.16c2.81,0,4.92,2.38,4.92,5.9,0,4.18-2.54,6.24-5.28,6.24a4.07,4.07,0,0,1-3.58-1.82h0v6.31H90.43Zm2.09,3.1a4.73,4.73,0,0,0,.1.86,3.26,3.26,0,0,0,3.17,2.47c2.23,0,3.53-1.82,3.53-4.49,0-2.33-1.22-4.32-3.46-4.32a3.37,3.37,0,0,0-3.19,2.62,3.42,3.42,0,0,0-.14.86Z"/><path class="cls-1" d="M103.8,14.88a5.54,5.54,0,0,0,2.78.84c1.54,0,2.26-.77,2.26-1.73s-.6-1.56-2.16-2.14c-2.09-.74-3.07-1.9-3.07-3.29,0-1.87,1.51-3.41,4-3.41a5.8,5.8,0,0,1,2.86.72l-.53,1.54a4.52,4.52,0,0,0-2.38-.67c-1.25,0-1.94.72-1.94,1.58s.7,1.39,2.21,2c2,.77,3,1.78,3,3.5,0,2-1.58,3.48-4.34,3.48a6.63,6.63,0,0,1-3.26-.79Z"/></g></g></svg>